<svg width="636" height="465" viewBox="0 0 636 465" fill="none" xmlns="http://www.w3.org/2000/svg">
<path d="M0 80C0 35.8172 35.8172 0 80 0H212V75C212 119.183 176.183 155 132 155H0V80Z" fill="#B1D5CB"/>
<path d="M0 155H132C176.183 155 212 190.817 212 235V310H80C35.8172 310 0 274.183 0 230V155Z" fill="#D86A53"/>
<path d="M0 390C0 345.817 35.8172 310 80 310H212V465H0V390Z" fill="#0A161A"/>
<path d="M212 0H344C388.183 0 424 35.8172 424 80V155H292C247.817 155 212 119.183 212 75V0Z" fill="#D86A53"/>
<path d="M212 310H344C388.183 310 424 345.817 424 390V465H292C247.817 465 212 429.183 212 385V310Z" fill="#D86A53"/>
<path d="M212 231C212 186.817 247.817 151 292 151H424V226C424 270.183 388.183 306 344 306H212V231Z" fill="#0A161A"/>
<path d="M424 80C424 35.8172 459.817 0 504 0H636V155H424V80Z" fill="#B1D5CB"/>
<path d="M424 231C424 186.817 459.817 151 504 151H636V226C636 270.183 600.183 306 556 306H424V231Z" fill="#D86A53"/>
</svg>
